<?xml version="1.0" standalone="no"?><!DOCTYPE svg PUBLIC "-//W3C//DTD SVG 1.1//EN" "http://www.w3.org/Graphics/SVG/1.1/DTD/svg11.dtd"><svg version="1.1" xmlns="http://www.w3.org/2000/svg" xmlns:xlink="http://www.w3.org/1999/xlink" viewBox="0 0 1200 300"><g><rect x="0" y="0" width="150" height="150" fill="#171c19" /><rect x="150" y="0" width="150" height="150" fill="#232a25" /><rect x="300" y="0" width="150" height="150" fill="#526057" /><rect x="450" y="0" width="150" height="150" fill="#5f6d64" /><rect x="600" y="0" width="150" height="150" fill="#78877d" /><rect x="750" y="0" width="150" height="150" fill="#87928a" /><rect x="900" y="0" width="150" height="150" fill="#dfe7e2" /><rect x="1050" y="0" width="150" height="150" fill="#ecf4ee" /><rect x="0" y="150" width="150" height="150" fill="#a07e3b" /><rect x="150" y="150" width="150" height="150" fill="#9f713c" /><rect x="300" y="150" width="150" height="150" fill="#b16139" /><rect x="450" y="150" width="150" height="150" fill="#867469" /><rect x="600" y="150" width="150" height="150" fill="#55859b" /><rect x="750" y="150" width="150" height="150" fill="#478c90" /><rect x="900" y="150" width="150" height="150" fill="#1c9aa0" /><rect x="1050" y="150" width="150" height="150" fill="#489963" /></g></svg>
