<?xml version="1.0" standalone="no"?><!DOCTYPE svg PUBLIC "-//W3C//DTD SVG 1.1//EN" "http://www.w3.org/Graphics/SVG/1.1/DTD/svg11.dtd"><svg version="1.1" xmlns="http://www.w3.org/2000/svg" xmlns:xlink="http://www.w3.org/1999/xlink" viewBox="0 0 1200 300"><g><rect x="0" y="0" width="150" height="150" fill="#22221b" /><rect x="150" y="0" width="150" height="150" fill="#302f27" /><rect x="300" y="0" width="150" height="150" fill="#5f5e4e" /><rect x="450" y="0" width="150" height="150" fill="#6c6b5a" /><rect x="600" y="0" width="150" height="150" fill="#878573" /><rect x="750" y="0" width="150" height="150" fill="#929181" /><rect x="900" y="0" width="150" height="150" fill="#e7e6df" /><rect x="1050" y="0" width="150" height="150" fill="#f4f3ec" /><rect x="0" y="150" width="150" height="150" fill="#a5980d" /><rect x="150" y="150" width="150" height="150" fill="#ae7313" /><rect x="300" y="150" width="150" height="150" fill="#ba6236" /><rect x="450" y="150" width="150" height="150" fill="#9d6c7c" /><rect x="600" y="150" width="150" height="150" fill="#5f9182" /><rect x="750" y="150" width="150" height="150" fill="#36a166" /><rect x="900" y="150" width="150" height="150" fill="#5b9d48" /><rect x="1050" y="150" width="150" height="150" fill="#7d9726" /></g></svg>
