<svg version="1.1" xmlns="http://www.w3.org/2000/svg" xmlns:xlink="http://www.w3.org/1999/xlink" viewBox="0 0 1200 300"><g><rect x="0" y="0" width="300" height="300" fill="#131513" /><rect x="300" y="0" width="300" height="300" fill="#242924" /><rect x="600" y="0" width="300" height="300" fill="#5e6e5e" /><rect x="900" y="0" width="300" height="300" fill="#687d68" /><rect x="0" y="300" width="300" height="300" fill="#809980" /><rect x="300" y="300" width="300" height="300" fill="#8ca68c" /><rect x="600" y="300" width="300" height="300" fill="#cfe8cf" /><rect x="900" y="300" width="300" height="300" fill="#f4fbf4" /><rect x="0" y="600" width="300" height="300" fill="#98981b" /><rect x="300" y="600" width="300" height="300" fill="#87711d" /><rect x="600" y="600" width="300" height="300" fill="#e6193c" /><rect x="900" y="600" width="300" height="300" fill="#e619c3" /><rect x="0" y="900" width="300" height="300" fill="#ad2bee" /><rect x="300" y="900" width="300" height="300" fill="#3d62f5" /><rect x="600" y="900" width="300" height="300" fill="#1999b3" /><rect x="900" y="900" width="300" height="300" fill="#29a329" /></g></svg>
