<?xml version="1.0" standalone="no"?><!DOCTYPE svg PUBLIC "-//W3C//DTD SVG 1.1//EN" "http://www.w3.org/Graphics/SVG/1.1/DTD/svg11.dtd"><svg version="1.1" xmlns="http://www.w3.org/2000/svg" xmlns:xlink="http://www.w3.org/1999/xlink" viewBox="0 0 1200 300"><g><rect x="0" y="0" width="150" height="150" fill="#20201d" /><rect x="150" y="0" width="150" height="150" fill="#292824" /><rect x="300" y="0" width="150" height="150" fill="#6e6b5e" /><rect x="450" y="0" width="150" height="150" fill="#7d7a68" /><rect x="600" y="0" width="150" height="150" fill="#999580" /><rect x="750" y="0" width="150" height="150" fill="#a6a28c" /><rect x="900" y="0" width="150" height="150" fill="#e8e4cf" /><rect x="1050" y="0" width="150" height="150" fill="#fefbec" /><rect x="0" y="150" width="150" height="150" fill="#ae9513" /><rect x="150" y="150" width="150" height="150" fill="#b65611" /><rect x="300" y="150" width="150" height="150" fill="#d73737" /><rect x="450" y="150" width="150" height="150" fill="#d43552" /><rect x="600" y="150" width="150" height="150" fill="#b854d4" /><rect x="750" y="150" width="150" height="150" fill="#6684e1" /><rect x="900" y="150" width="150" height="150" fill="#1fad83" /><rect x="1050" y="150" width="150" height="150" fill="#60ac39" /></g></svg>
