<svg version="1.1" xmlns="http://www.w3.org/2000/svg" xmlns:xlink="http://www.w3.org/1999/xlink" viewBox="0 0 1200 300"><g><rect x="0" y="0" width="300" height="300" fill="#1b181b" /><rect x="300" y="0" width="300" height="300" fill="#292329" /><rect x="600" y="0" width="300" height="300" fill="#695d69" /><rect x="900" y="0" width="300" height="300" fill="#776977" /><rect x="0" y="300" width="300" height="300" fill="#9e8f9e" /><rect x="300" y="300" width="300" height="300" fill="#ab9bab" /><rect x="600" y="300" width="300" height="300" fill="#d8cad8" /><rect x="900" y="300" width="300" height="300" fill="#f7f3f7" /><rect x="0" y="600" width="300" height="300" fill="#bb8a35" /><rect x="300" y="600" width="300" height="300" fill="#a65926" /><rect x="600" y="600" width="300" height="300" fill="#ca402b" /><rect x="900" y="600" width="300" height="300" fill="#cc33cc" /><rect x="0" y="900" width="300" height="300" fill="#7b59c0" /><rect x="300" y="900" width="300" height="300" fill="#516aec" /><rect x="600" y="900" width="300" height="300" fill="#159393" /><rect x="900" y="900" width="300" height="300" fill="#918b3b" /></g></svg>
