<svg version="1.1" xmlns="http://www.w3.org/2000/svg" xmlns:xlink="http://www.w3.org/1999/xlink" viewBox="0 0 1200 300"><g><rect x="0" y="0" width="300" height="300" fill="#202746" /><rect x="300" y="0" width="300" height="300" fill="#293256" /><rect x="600" y="0" width="300" height="300" fill="#5e6687" /><rect x="900" y="0" width="300" height="300" fill="#6b7394" /><rect x="0" y="300" width="300" height="300" fill="#898ea4" /><rect x="300" y="300" width="300" height="300" fill="#979db4" /><rect x="600" y="300" width="300" height="300" fill="#dfe2f1" /><rect x="900" y="300" width="300" height="300" fill="#f5f7ff" /><rect x="0" y="600" width="300" height="300" fill="#c08b30" /><rect x="300" y="600" width="300" height="300" fill="#c76b29" /><rect x="600" y="600" width="300" height="300" fill="#c94922" /><rect x="900" y="600" width="300" height="300" fill="#9c637a" /><rect x="0" y="900" width="300" height="300" fill="#6679cc" /><rect x="300" y="900" width="300" height="300" fill="#3d8fd1" /><rect x="600" y="900" width="300" height="300" fill="#22a2c9" /><rect x="900" y="900" width="300" height="300" fill="#ac9739" /></g></svg>
