<svg version="1.1" xmlns="http://www.w3.org/2000/svg" xmlns:xlink="http://www.w3.org/1999/xlink" viewBox="0 0 1200 300"><g><rect x="0" y="0" width="300" height="300" fill="#1b1918" /><rect x="300" y="0" width="300" height="300" fill="#2c2421" /><rect x="600" y="0" width="300" height="300" fill="#68615e" /><rect x="900" y="0" width="300" height="300" fill="#766e6b" /><rect x="0" y="300" width="300" height="300" fill="#9c9491" /><rect x="300" y="300" width="300" height="300" fill="#a8a19f" /><rect x="600" y="300" width="300" height="300" fill="#e6e2e0" /><rect x="900" y="300" width="300" height="300" fill="#f1efee" /><rect x="0" y="600" width="300" height="300" fill="#c38418" /><rect x="300" y="600" width="300" height="300" fill="#df5320" /><rect x="600" y="600" width="300" height="300" fill="#f22c40" /><rect x="900" y="600" width="300" height="300" fill="#c33ff3" /><rect x="0" y="900" width="300" height="300" fill="#6666ea" /><rect x="300" y="900" width="300" height="300" fill="#407ee7" /><rect x="600" y="900" width="300" height="300" fill="#3d97b8" /><rect x="900" y="900" width="300" height="300" fill="#7b9726" /></g></svg>
