<?xml version="1.0" standalone="no"?><!DOCTYPE svg PUBLIC "-//W3C//DTD SVG 1.1//EN" "http://www.w3.org/Graphics/SVG/1.1/DTD/svg11.dtd"><svg version="1.1" xmlns="http://www.w3.org/2000/svg" xmlns:xlink="http://www.w3.org/1999/xlink" viewBox="0 0 1200 300"><g><rect  x="0" y="0" width="150" height="150" fill="#161b1d" /><rect  x="150" y="0" width="150" height="150" fill="#1f292e" /><rect  x="300" y="0" width="150" height="150" fill="#516d7b" /><rect  x="450" y="0" width="150" height="150" fill="#5a7b8c" /><rect  x="600" y="0" width="150" height="150" fill="#7195a8" /><rect  x="750" y="0" width="150" height="150" fill="#7ea2b4" /><rect  x="900" y="0" width="150" height="150" fill="#c1e4f6" /><rect  x="1050" y="0" width="150" height="150" fill="#ebf8ff" /><rect  x="0" y="150" width="150" height="150" fill="#8a8a0f" /><rect  x="150" y="150" width="150" height="150" fill="#935c25" /><rect  x="300" y="150" width="150" height="150" fill="#d22d72" /><rect  x="450" y="150" width="150" height="150" fill="#b72dd2" /><rect  x="600" y="150" width="150" height="150" fill="#6b6bb8" /><rect  x="750" y="150" width="150" height="150" fill="#257fad" /><rect  x="900" y="150" width="150" height="150" fill="#2d8f6f" /><rect  x="1050" y="150" width="150" height="150" fill="#568c3b" /></g></svg>
