<svg version="1.1" xmlns="http://www.w3.org/2000/svg" xmlns:xlink="http://www.w3.org/1999/xlink" viewBox="0 0 1200 300"><g><rect x="0" y="0" width="300" height="300" fill="#161b1d" /><rect x="300" y="0" width="300" height="300" fill="#1f292e" /><rect x="600" y="0" width="300" height="300" fill="#516d7b" /><rect x="900" y="0" width="300" height="300" fill="#5a7b8c" /><rect x="0" y="300" width="300" height="300" fill="#7195a8" /><rect x="300" y="300" width="300" height="300" fill="#7ea2b4" /><rect x="600" y="300" width="300" height="300" fill="#c1e4f6" /><rect x="900" y="300" width="300" height="300" fill="#ebf8ff" /><rect x="0" y="600" width="300" height="300" fill="#8a8a0f" /><rect x="300" y="600" width="300" height="300" fill="#935c25" /><rect x="600" y="600" width="300" height="300" fill="#d22d72" /><rect x="900" y="600" width="300" height="300" fill="#b72dd2" /><rect x="0" y="900" width="300" height="300" fill="#6b6bb8" /><rect x="300" y="900" width="300" height="300" fill="#257fad" /><rect x="600" y="900" width="300" height="300" fill="#2d8f6f" /><rect x="900" y="900" width="300" height="300" fill="#568c3b" /></g></svg>
