<?xml version="1.0" standalone="no"?><!DOCTYPE svg PUBLIC "-//W3C//DTD SVG 1.1//EN" "http://www.w3.org/Graphics/SVG/1.1/DTD/svg11.dtd"><svg version="1.1" xmlns="http://www.w3.org/2000/svg" xmlns:xlink="http://www.w3.org/1999/xlink" viewBox="0 0 1200 300"><g><rect x="0" y="0" width="150" height="150" fill="#1b181b" /><rect x="150" y="0" width="150" height="150" fill="#292329" /><rect x="300" y="0" width="150" height="150" fill="#695d69" /><rect x="450" y="0" width="150" height="150" fill="#776977" /><rect x="600" y="0" width="150" height="150" fill="#9e8f9e" /><rect x="750" y="0" width="150" height="150" fill="#ab9bab" /><rect x="900" y="0" width="150" height="150" fill="#d8cad8" /><rect x="1050" y="0" width="150" height="150" fill="#f7f3f7" /><rect x="0" y="150" width="150" height="150" fill="#bb8a35" /><rect x="150" y="150" width="150" height="150" fill="#a65926" /><rect x="300" y="150" width="150" height="150" fill="#ca402b" /><rect x="450" y="150" width="150" height="150" fill="#cc33cc" /><rect x="600" y="150" width="150" height="150" fill="#7b59c0" /><rect x="750" y="150" width="150" height="150" fill="#516aec" /><rect x="900" y="150" width="150" height="150" fill="#159393" /><rect x="1050" y="150" width="150" height="150" fill="#918b3b" /></g></svg>
