<?xml version="1.0" standalone="no"?><!DOCTYPE svg PUBLIC "-//W3C//DTD SVG 1.1//EN" "http://www.w3.org/Graphics/SVG/1.1/DTD/svg11.dtd"><svg version="1.1" xmlns="http://www.w3.org/2000/svg" xmlns:xlink="http://www.w3.org/1999/xlink" viewBox="0 0 1200 300"><g><rect x="0" y="0" width="150" height="150" fill="#202746" /><rect x="150" y="0" width="150" height="150" fill="#293256" /><rect x="300" y="0" width="150" height="150" fill="#5e6687" /><rect x="450" y="0" width="150" height="150" fill="#6b7394" /><rect x="600" y="0" width="150" height="150" fill="#898ea4" /><rect x="750" y="0" width="150" height="150" fill="#979db4" /><rect x="900" y="0" width="150" height="150" fill="#dfe2f1" /><rect x="1050" y="0" width="150" height="150" fill="#f5f7ff" /><rect x="0" y="150" width="150" height="150" fill="#c08b30" /><rect x="150" y="150" width="150" height="150" fill="#c76b29" /><rect x="300" y="150" width="150" height="150" fill="#c94922" /><rect x="450" y="150" width="150" height="150" fill="#9c637a" /><rect x="600" y="150" width="150" height="150" fill="#6679cc" /><rect x="750" y="150" width="150" height="150" fill="#3d8fd1" /><rect x="900" y="150" width="150" height="150" fill="#22a2c9" /><rect x="1050" y="150" width="150" height="150" fill="#ac9739" /></g></svg>
