<?xml version="1.0" encoding="utf-8"?><svg version="1.1" xmlns="http://www.w3.org/2000/svg" xmlns:xlink="http://www.w3.org/1999/xlink" width="356px" height="227px" viewBox="0 0 356 227"><style type="text/css"><![CDATA[ .st1{clip-path:url(#SVGID_8_);fill:#303030;} .st2{clip-path:url(#SVGID_2_);} .st3{clip-path:url(#SVGID_6_);} .st4{fill:#FFFFFF;} .st6{clip-path:url(#SVGID_4_);fill:#FFFFFF;} ]]></style><g id="prism"><g><defs><rect id="SVGID_1_" width="200" height="170"/></defs><clipPath id="SVGID_2_"><use xlink:href="#SVGID_1_" style="overflow:visible;"/></clipPath><g class="st2"><defs><rect id="SVGID_3_" width="200" height="170"/></defs><clipPath id="SVGID_4_"><use xlink:href="#SVGID_3_"  style="overflow:visible;"/></clipPath><path class="st6" d="M55.371,131.506h-6.976v9.12h6.976c1.664,0,2.923-0.405,3.776-1.216c0.853-0.811,1.28-1.926,1.28-3.344 c0-1.42-0.427-2.533-1.28-3.346C58.293,131.911,57.035,131.506,55.371,131.506 M84.894,137.906 c0.32-0.533,0.48-1.217,0.48-2.049c0-1.344-0.459-2.404-1.376-3.185c-0.917-0.778-2.134-1.168-3.648-1.168h-7.456v8.513h7.328 C82.483,140.018,84.041,139.314,84.894,137.906 M100,0L0,170h200L100,0z M60.859,141.025c-1.312,1.228-3.088,1.841-5.328,1.841 h-7.136v7.552h-2.4v-21.184h9.536c2.24,0,4.021,0.617,5.344,1.854c1.301,1.237,1.952,2.892,1.952,4.96 C62.827,138.141,62.171,139.8,60.859,141.025 M85.374,150.418l-5.12-8.128h-7.36v8.128h-2.4v-21.184h10.144 c2.155,0,3.883,0.597,5.184,1.791c1.301,1.174,1.952,2.783,1.952,4.832c0,2.646-1.099,4.447-3.296,5.408 c-0.619,0.277-1.227,0.479-1.824,0.607l5.568,8.544L85.374,150.418L85.374,150.418z M98.791,150.418h-2.4v-21.184h2.4V150.418z M122.361,149.105c-1.482,1.045-3.536,1.567-6.16,1.567c-2.965,0-5.227-0.618-6.784-1.854c-1.388-1.109-2.176-2.688-2.366-4.736 h2.494c0.086,1.451,0.789,2.561,2.112,3.328c1.151,0.66,2.677,0.992,4.575,0.992c3.969,0,5.953-1.248,5.953-3.744 c0-0.854-0.357-1.525-1.072-2.018c-0.715-0.49-1.611-0.896-2.688-1.216c-1.078-0.319-2.24-0.618-3.488-0.896 c-1.248-0.278-2.412-0.635-3.488-1.072c-1.077-0.438-1.975-1.014-2.688-1.729c-0.715-0.715-1.072-1.681-1.072-2.896 c0-1.729,0.66-3.137,1.984-4.225c1.321-1.088,3.315-1.633,5.982-1.633c2.688,0,4.77,0.619,6.24,1.856 c1.344,1.088,2.059,2.485,2.144,4.192h-2.464c-0.213-1.75-1.344-2.912-3.393-3.488c-0.726-0.213-1.627-0.32-2.703-0.32 c-1.078,0-1.984,0.123-2.721,0.368s-1.308,0.544-1.711,0.896c-0.406,0.353-0.679,0.742-0.816,1.168 c-0.139,0.428-0.209,0.881-0.209,1.359c0,0.48,0.209,0.924,0.625,1.328s0.965,0.747,1.648,1.023 c0.682,0.277,1.461,0.522,2.336,0.735c0.873,0.214,1.764,0.433,2.672,0.656c0.905,0.224,1.797,0.479,2.672,0.769 c0.873,0.287,1.652,0.655,2.336,1.104c1.515,0.96,2.271,2.271,2.271,3.936C124.585,146.546,123.844,148.061,122.361,149.105 M151.199,150.418v-17.536l-7.84,10.08l-7.969-10.08v17.536h-2.399v-21.184h2.784l7.584,10.048l7.455-10.048h2.785v21.184 H151.199z"/></g></g></g><g id="themes-bg"><g><g><defs><rect id="SVGID_5_" x="156" y="57" width="200" height="170"/></defs><clipPath id="SVGID_6_"><use xlink:href="#SVGID_5_"  style="overflow:visible;"/></clipPath><g class="st3"><defs><rect id="SVGID_7_" x="156" y="57" width="200" height="170"/></defs><clipPath id="SVGID_8_"><use xlink:href="#SVGID_7_"  style="overflow:visible;"/></clipPath><path class="st1" d="M356,57H156l100,170L356,57z"/></g></g></g></g><g id="themes"><g><path class="st4" d="M202.956,100.1V85.776h-3.366v-2.178h3.366V77.69h2.476v5.908h3.795v2.178h-3.795V100.1H202.956z"/><path class="st4" d="M214.787,76.997v9.175c1.188-1.584,2.805-2.838,5.479-2.838c3.399,0,6.601,2.476,6.601,7.162v9.604h-2.476 v-9.539c0-3.003-1.914-4.983-4.62-4.983c-2.739,0-4.983,2.046-4.983,5.017v9.505h-2.476V76.997H214.787z"/><path class="st4" d="M243.676,95.348h2.706c-1.155,2.97-3.597,5.017-7.524,5.017c-5.05,0-8.351-3.796-8.351-8.515 c0-4.72,3.136-8.516,8.186-8.516s8.185,3.796,8.185,8.516v0.99h-13.829c0.363,2.938,2.509,5.281,5.843,5.281 C241.2,98.12,242.785,96.998,243.676,95.348z M233.081,90.529h11.222c-0.462-2.806-2.442-4.951-5.61-4.951 C235.523,85.578,233.543,87.723,233.081,90.529z"/><path class="st4" d="M264.044,100.1h-2.476v-9.901c0-2.772-1.782-4.621-4.093-4.621c-2.442,0-4.455,1.716-4.455,4.653v9.869 h-2.476V83.598h2.476v2.508c0.759-1.32,2.343-2.772,5.017-2.772c2.178,0,4.191,1.221,5.247,3.333 c0.66-1.122,2.41-3.333,5.677-3.333c3.169,0,6.106,2.641,6.106,6.799v9.967h-2.476v-9.901c0-2.772-1.782-4.621-4.093-4.621 c-2.442,0-4.455,1.716-4.455,4.653V100.1z"/><path class="st4" d="M291.908,95.348h2.706c-1.155,2.97-3.597,5.017-7.524,5.017c-5.05,0-8.351-3.796-8.351-8.515 c0-4.72,3.136-8.516,8.186-8.516s8.185,3.796,8.185,8.516v0.99H281.28c0.363,2.938,2.509,5.281,5.843,5.281 C289.433,98.12,291.018,96.998,291.908,95.348z M281.313,90.529h11.222c-0.462-2.806-2.442-4.951-5.61-4.951 C283.756,85.578,281.775,87.723,281.313,90.529z"/><path class="st4" d="M310.923,88.021h-2.509c-0.198-1.419-1.254-2.575-4.026-2.575c-2.574,0-3.928,0.759-3.928,2.376 c0,3.96,10.99,1.386,10.99,7.591c0,3.201-2.64,4.951-6.732,4.951c-4.588,0-6.997-2.542-7.162-5.446h2.574 c0.165,1.683,1.419,3.333,4.621,3.333c1.353,0,4.225-0.363,4.225-2.607c0-4.125-10.991-1.551-10.991-7.591 c0-2.97,2.212-4.72,6.469-4.72C308.811,83.333,310.625,85.611,310.923,88.021z"/></g></g></svg>
