<svg width="800" height="50" xmlns="http://www.w3.org/2000/svg">
 <g>
  <title>Base16 Duotone-DarkEarth</title>
  <line id="base00" x1="025" y1="0" x2="025" y2="720" stroke-width="50" stroke="#322d29" />
  <line id="base01" x1="075" y1="0" x2="075" y2="720" stroke-width="50" stroke="#4c4642" />
  <line id="base02" x1="125" y1="0" x2="125" y2="720" stroke-width="50" stroke="#695f59" />
  <line id="base03" x1="175" y1="0" x2="175" y2="720" stroke-width="50" stroke="#85786f" />
  <line id="base04" x1="225" y1="0" x2="225" y2="720" stroke-width="50" stroke="#ac9b91" />
  <line id="base05" x1="275" y1="0" x2="275" y2="720" stroke-width="50" stroke="#fcb07d" />
  <line id="base06" x1="325" y1="0" x2="325" y2="720" stroke-width="50" stroke="#fed4b8" />
  <line id="base07" x1="375" y1="0" x2="375" y2="720" stroke-width="50" stroke="#fff3eb" />
  <line id="base08" x1="425" y1="0" x2="425" y2="720" stroke-width="50" stroke="#c08e6d" />
  <line id="base09" x1="475" y1="0" x2="475" y2="720" stroke-width="50" stroke="#bfa05a" />
  <line id="base0A" x1="525" y1="0" x2="525" y2="720" stroke-width="50" stroke="#ccad66" />
  <line id="base0B" x1="575" y1="0" x2="575" y2="720" stroke-width="50" stroke="#a89771" />
  <line id="base0C" x1="625" y1="0" x2="625" y2="720" stroke-width="50" stroke="#e0c585" />
  <line id="base0D" x1="675" y1="0" x2="675" y2="720" stroke-width="50" stroke="#d7b975" />
  <line id="base0E" x1="725" y1="0" x2="725" y2="720" stroke-width="50" stroke="#c8ab98" />
  <line id="base0F" x1="775" y1="0" x2="775" y2="720" stroke-width="50" stroke="#c39d83" />
 </g>
</svg>