<?xml version="1.0" standalone="no"?><!DOCTYPE svg PUBLIC "-//W3C//DTD SVG 1.1//EN" "http://www.w3.org/Graphics/SVG/1.1/DTD/svg11.dtd"><svg version="1.1" xmlns="http://www.w3.org/2000/svg" xmlns:xlink="http://www.w3.org/1999/xlink" viewBox="0 0 1200 300"><g><rect x="0" y="0" width="150" height="150" fill="#1b1818" /><rect x="150" y="0" width="150" height="150" fill="#292424" /><rect x="300" y="0" width="150" height="150" fill="#585050" /><rect x="450" y="0" width="150" height="150" fill="#655d5d" /><rect x="600" y="0" width="150" height="150" fill="#7e7777" /><rect x="750" y="0" width="150" height="150" fill="#8a8585" /><rect x="900" y="0" width="150" height="150" fill="#e7dfdf" /><rect x="1050" y="0" width="150" height="150" fill="#f4ecec" /><rect x="0" y="150" width="150" height="150" fill="#a06e3b" /><rect x="150" y="150" width="150" height="150" fill="#b45a3c" /><rect x="300" y="150" width="150" height="150" fill="#ca4949" /><rect x="450" y="150" width="150" height="150" fill="#bd5187" /><rect x="600" y="150" width="150" height="150" fill="#8464c4" /><rect x="750" y="150" width="150" height="150" fill="#7272ca" /><rect x="900" y="150" width="150" height="150" fill="#5485b6" /><rect x="1050" y="150" width="150" height="150" fill="#4b8b8b" /></g></svg>
