<?xml version="1.0" standalone="no"?><!DOCTYPE svg PUBLIC "-//W3C//DTD SVG 1.1//EN" "http://www.w3.org/Graphics/SVG/1.1/DTD/svg11.dtd"><svg version="1.1" xmlns="http://www.w3.org/2000/svg" xmlns:xlink="http://www.w3.org/1999/xlink" viewBox="0 0 1200 300"><g><rect x="0" y="0" width="150" height="150" fill="#1b1918" /><rect x="150" y="0" width="150" height="150" fill="#2c2421" /><rect x="300" y="0" width="150" height="150" fill="#68615e" /><rect x="450" y="0" width="150" height="150" fill="#766e6b" /><rect x="600" y="0" width="150" height="150" fill="#9c9491" /><rect x="750" y="0" width="150" height="150" fill="#a8a19f" /><rect x="900" y="0" width="150" height="150" fill="#e6e2e0" /><rect x="1050" y="0" width="150" height="150" fill="#f1efee" /><rect x="0" y="150" width="150" height="150" fill="#c38418" /><rect x="150" y="150" width="150" height="150" fill="#df5320" /><rect x="300" y="150" width="150" height="150" fill="#f22c40" /><rect x="450" y="150" width="150" height="150" fill="#c33ff3" /><rect x="600" y="150" width="150" height="150" fill="#6666ea" /><rect x="750" y="150" width="150" height="150" fill="#407ee7" /><rect x="900" y="150" width="150" height="150" fill="#3d97b8" /><rect x="1050" y="150" width="150" height="150" fill="#7b9726" /></g></svg>
