<?xml version="1.0" standalone="no"?><!DOCTYPE svg PUBLIC "-//W3C//DTD SVG 1.1//EN" "http://www.w3.org/Graphics/SVG/1.1/DTD/svg11.dtd"><svg version="1.1" xmlns="http://www.w3.org/2000/svg" xmlns:xlink="http://www.w3.org/1999/xlink" viewBox="0 0 1200 300"><g><rect x="0" y="0" width="150" height="150" fill="#19171c" /><rect x="150" y="0" width="150" height="150" fill="#26232a" /><rect x="300" y="0" width="150" height="150" fill="#585260" /><rect x="450" y="0" width="150" height="150" fill="#655f6d" /><rect x="600" y="0" width="150" height="150" fill="#7e7887" /><rect x="750" y="0" width="150" height="150" fill="#8b8792" /><rect x="900" y="0" width="150" height="150" fill="#e2dfe7" /><rect x="1050" y="0" width="150" height="150" fill="#efecf4" /><rect x="0" y="150" width="150" height="150" fill="#a06e3b" /><rect x="150" y="150" width="150" height="150" fill="#aa573c" /><rect x="300" y="150" width="150" height="150" fill="#be4678" /><rect x="450" y="150" width="150" height="150" fill="#bf40bf" /><rect x="600" y="150" width="150" height="150" fill="#955ae7" /><rect x="750" y="150" width="150" height="150" fill="#576ddb" /><rect x="900" y="150" width="150" height="150" fill="#398bc6" /><rect x="1050" y="150" width="150" height="150" fill="#2a9292" /></g></svg>
