<?xml version="1.0" standalone="no"?><!DOCTYPE svg PUBLIC "-//W3C//DTD SVG 1.1//EN" "http://www.w3.org/Graphics/SVG/1.1/DTD/svg11.dtd"><svg version="1.1" xmlns="http://www.w3.org/2000/svg" xmlns:xlink="http://www.w3.org/1999/xlink" viewBox="0 0 1200 300"><g><rect  x="0" y="0" width="150" height="150" fill="#131513" /><rect  x="150" y="0" width="150" height="150" fill="#242924" /><rect  x="300" y="0" width="150" height="150" fill="#5e6e5e" /><rect  x="450" y="0" width="150" height="150" fill="#687d68" /><rect  x="600" y="0" width="150" height="150" fill="#809980" /><rect  x="750" y="0" width="150" height="150" fill="#8ca68c" /><rect  x="900" y="0" width="150" height="150" fill="#cfe8cf" /><rect  x="1050" y="0" width="150" height="150" fill="#f4fbf4" /><rect  x="0" y="150" width="150" height="150" fill="#98981b" /><rect  x="150" y="150" width="150" height="150" fill="#87711d" /><rect  x="300" y="150" width="150" height="150" fill="#e6193c" /><rect  x="450" y="150" width="150" height="150" fill="#e619c3" /><rect  x="600" y="150" width="150" height="150" fill="#ad2bee" /><rect  x="750" y="150" width="150" height="150" fill="#3d62f5" /><rect  x="900" y="150" width="150" height="150" fill="#1999b3" /><rect  x="1050" y="150" width="150" height="150" fill="#29a329" /></g></svg>
