<?xml version="1.0" standalone="no"?><!DOCTYPE svg PUBLIC "-//W3C//DTD SVG 1.1//EN" "http://www.w3.org/Graphics/SVG/1.1/DTD/svg11.dtd"><svg version="1.1" xmlns="http://www.w3.org/2000/svg" xmlns:xlink="http://www.w3.org/1999/xlink" viewBox="0 0 1200 300"><g><rect x="0" y="0" width="150" height="150" fill="#2a2734" /><rect x="150" y="0" width="150" height="150" fill="#363442" /><rect x="300" y="0" width="150" height="150" fill="#545167" /><rect x="450" y="0" width="150" height="150" fill="#6c6783" /><rect x="600" y="0" width="150" height="150" fill="#7e75a9" /><rect x="750" y="0" width="150" height="150" fill="#6a51e6" /><rect x="900" y="0" width="150" height="150" fill="#7a63ee" /><rect x="1050" y="0"   width="150" height="150" fill="#8b76f4" /><rect x="0" y="150" width="150" height="150" fill="#9b87fd" /><rect x="150" y="150"  width="150" height="150" fill="#c4b8fe" /><rect x="300" y="150"  width="150" height="150" fill="#eeebff" /><rect x="450" y="150"  width="150" height="150" fill="#e09142" /><rect x="600" y="150"  width="150" height="150" fill="#ffb366" /><rect x="750" y="150"  width="150" height="150" fill="#ffba76" /><rect x="900" y="150"  width="150" height="150" fill="#ffcc99" /><rect x="1050" y="150" width="150" height="150" fill="#7c756e" /></g></svg>
