<svg xmlns="http://www.w3.org/2000/svg" version="1.1" width="356" height="227" viewBox="0 0 356 227"><style type="text/css"> .st1{clip-path:url(#SVGID_8_);fill:#303030;} .st2{clip-path:url(#SVGID_2_);} .st3{clip-path:url(#SVGID_6_);} .st4{fill:#FFFFFF;} .st6{clip-path:url(#SVGID_4_);fill:#FFFFFF;} </style><defs><rect width="200" height="170"/></defs><g class="st2"><defs><rect width="200" height="170"/></defs><path class="st6" d="M55.4 131.5h-7v9.1h7c1.7 0 2.9-0.4 3.8-1.2 0.9-0.8 1.3-1.9 1.3-3.3 0-1.4-0.4-2.5-1.3-3.3C58.3 131.9 57 131.5 55.4 131.5M84.9 137.9c0.3-0.5 0.5-1.2 0.5-2 0-1.3-0.5-2.4-1.4-3.2 -0.9-0.8-2.1-1.2-3.6-1.2h-7.5v8.5h7.3C82.5 140 84 139.3 84.9 137.9M100 0L0 170h200L100 0zM60.9 141c-1.3 1.2-3.1 1.8-5.3 1.8h-7.1v7.6h-2.4v-21.2h9.5c2.2 0 4 0.6 5.3 1.9 1.3 1.2 2 2.9 2 5C62.8 138.1 62.2 139.8 60.9 141M85.4 150.4l-5.1-8.1h-7.4v8.1h-2.4v-21.2h10.1c2.2 0 3.9 0.6 5.2 1.8 1.3 1.2 2 2.8 2 4.8 0 2.6-1.1 4.4-3.3 5.4 -0.6 0.3-1.2 0.5-1.8 0.6l5.6 8.5L85.4 150.4 85.4 150.4zM98.8 150.4h-2.4v-21.2h2.4V150.4zM122.4 149.1c-1.5 1-3.5 1.6-6.2 1.6 -3 0-5.2-0.6-6.8-1.9 -1.4-1.1-2.2-2.7-2.4-4.7h2.5c0.1 1.5 0.8 2.6 2.1 3.3 1.2 0.7 2.7 1 4.6 1 4 0 6-1.2 6-3.7 0-0.9-0.4-1.5-1.1-2 -0.7-0.5-1.6-0.9-2.7-1.2 -1.1-0.3-2.2-0.6-3.5-0.9 -1.2-0.3-2.4-0.6-3.5-1.1 -1.1-0.4-2-1-2.7-1.7 -0.7-0.7-1.1-1.7-1.1-2.9 0-1.7 0.7-3.1 2-4.2 1.3-1.1 3.3-1.6 6-1.6 2.7 0 4.8 0.6 6.2 1.9 1.3 1.1 2.1 2.5 2.1 4.2h-2.5c-0.2-1.7-1.3-2.9-3.4-3.5 -0.7-0.2-1.6-0.3-2.7-0.3 -1.1 0-2 0.1-2.7 0.4s-1.3 0.5-1.7 0.9c-0.4 0.4-0.7 0.7-0.8 1.2 -0.1 0.4-0.2 0.9-0.2 1.4 0 0.5 0.2 0.9 0.6 1.3s1 0.7 1.6 1c0.7 0.3 1.5 0.5 2.3 0.7 0.9 0.2 1.8 0.4 2.7 0.7 0.9 0.2 1.8 0.5 2.7 0.8 0.9 0.3 1.7 0.7 2.3 1.1 1.5 1 2.3 2.3 2.3 3.9C124.6 146.5 123.8 148.1 122.4 149.1M151.2 150.4v-17.5l-7.8 10.1 -8-10.1v17.5h-2.4v-21.2h2.8l7.6 10 7.5-10h2.8v21.2H151.2z"/></g><defs><rect x="156" y="57" width="200" height="170"/></defs><g class="st3"><defs><rect x="156" y="57" width="200" height="170"/></defs><path class="st1" d="M356 57H156l100 170L356 57z"/></g><path class="st4" d="M203 100.1V85.8h-3.4v-2.2h3.4V77.7h2.5v5.9h3.8v2.2h-3.8V100.1H203zM214.8 77v9.2c1.2-1.6 2.8-2.8 5.5-2.8 3.4 0 6.6 2.5 6.6 7.2v9.6h-2.5v-9.5c0-3-1.9-5-4.6-5 -2.7 0-5 2-5 5v9.5h-2.5V77H214.8zM243.7 95.3h2.7c-1.2 3-3.6 5-7.5 5 -5 0-8.4-3.8-8.4-8.5 0-4.7 3.1-8.5 8.2-8.5s8.2 3.8 8.2 8.5v1h-13.8c0.4 2.9 2.5 5.3 5.8 5.3C241.2 98.1 242.8 97 243.7 95.3zM233.1 90.5h11.2c-0.5-2.8-2.4-5-5.6-5C235.5 85.6 233.5 87.7 233.1 90.5zM264 100.1h-2.5v-9.9c0-2.8-1.8-4.6-4.1-4.6 -2.4 0-4.5 1.7-4.5 4.7v9.9h-2.5V83.6h2.5v2.5c0.8-1.3 2.3-2.8 5-2.8 2.2 0 4.2 1.2 5.2 3.3 0.7-1.1 2.4-3.3 5.7-3.3 3.2 0 6.1 2.6 6.1 6.8v10h-2.5v-9.9c0-2.8-1.8-4.6-4.1-4.6 -2.4 0-4.5 1.7-4.5 4.7V100.1zM291.9 95.3h2.7c-1.2 3-3.6 5-7.5 5 -5 0-8.4-3.8-8.4-8.5 0-4.7 3.1-8.5 8.2-8.5s8.2 3.8 8.2 8.5v1H281.3c0.4 2.9 2.5 5.3 5.8 5.3C289.4 98.1 291 97 291.9 95.3zM281.3 90.5h11.2c-0.5-2.8-2.4-5-5.6-5C283.8 85.6 281.8 87.7 281.3 90.5zM310.9 88h-2.5c-0.2-1.4-1.3-2.6-4-2.6 -2.6 0-3.9 0.8-3.9 2.4 0 4 11 1.4 11 7.6 0 3.2-2.6 5-6.7 5 -4.6 0-7-2.5-7.2-5.4h2.6c0.2 1.7 1.4 3.3 4.6 3.3 1.4 0 4.2-0.4 4.2-2.6 0-4.1-11-1.6-11-7.6 0-3 2.2-4.7 6.5-4.7C308.8 83.3 310.6 85.6 310.9 88z"/></svg>